<svg xmlns="http://www.w3.org/2000/svg" width="164" height="135" fill="none">
<path fill="#fff" d="m144.3 46.9-7.5-8-6.6 8 6.6 6.6 7.5-6.6Z"/>
<path stroke="#fff" stroke-linecap="round" stroke-linejoin="round" stroke-width="10" d="M136.8 25.4V39m0 0 7.5 7.9m-7.5-8-6.6 8m14.1 0h13.8m-13.8 0-7.5 6.6m0 0v14.9m0-14.9-6.6-6.6m0 0h-15"/>
<mask id="a" fill="#fff">
  <path d="M48.8 130.6c-8.8 3.5-13 1-10.9 0a44.5 44.5 0 0 0 21.5-18 49.3 49.3 0 0 0 8-21.4c-2.2 1-4.5 1.7-6.8 2-12.6 1.3-18.5-6-20-11.5-.5-2.5-4.8-14.1 12.2-16.4C63 64 69.5 70 72.7 78a42.2 42.2 0 0 0 6-20.4C78.7 48 72.5 30.6 67 20c-1.7 8.5-5.3 25.7-6.2 26.4-1.2.8-4.2 0-5.3-.7-.9-.6 3.4-20 5.7-29.6-.3-.7-1-2.4-.5-3.3 1-1.5 3-.6 4.2-.1 1 .4 2.9-1.5 4.4-.6 2 1.2 26.3 2 28.1 2.8 1.9.8.7 1.7-.5 2.6-1 .7-16.2-.5-23.6-1.2 2.9 4.8 10.3 18.4 13 34.3A40.7 40.7 0 0 1 74.8 86c.5 3.5.4 7-.1 10.1-2.4 13.7-19.5 32-25.8 34.5Z"/>
</mask>
<path  mask="url(#a)" fill="#fff" d="m74.7 86 2.4 2.6 1.3-1.3-.2-1.7-3.5.4Zm-2-8 3.2-1.4-2.5-6.3-3.7 5.8 3 1.8Zm-5.4 13.2-3.4-.4-.7 6.2 5.6-2.6-1.5-3.2Zm-7-3 1.1 3.4-1.1-3.3Zm-11-18.8 1.7 3-1.6-3Zm29 16.2c-.5-3-1.2-6.1-2.4-9l-6.5 2.6c1 2.3 1.5 4.8 1.9 7.3l7-1Zm-9.5 8.8a32 32 0 0 0 8.3-5.8l-4.8-5.1A25 25 0 0 1 66 88l3 6.4Zm1-18.3c-1.4 2-3 3.9-4.7 5.4l4.5 5.3c2.5-2 4.4-4.4 6-7l-5.9-3.7ZM65 81.5a18.4 18.4 0 0 1-6 3.4l2.3 6.7c3.2-1.1 5.9-2.8 8.2-4.8l-4.5-5.3Zm-6 3.4c-3.2 1.2-5 .7-6.2 0-1.2-.6-2.2-2-2.8-4-.5-1.9-.6-4-.2-5.8a7 7 0 0 1 .7-2c.2-.6.4-.6.4-.6l-3.3-6.2C45 67.8 43.5 71 43 73.7c-.6 2.9-.5 6.2.4 9.3 1 3 2.8 6.2 6 8 3.3 2 7.4 2.2 12 .6l-2.3-6.7ZM51 72.5c1.8-1 3.7-1 5.7.1 2 1.3 4.5 4 6.5 9.1l6.5-2.6c-2.3-6-5.6-10.2-9.5-12.5-4-2.4-8.5-2.4-12.5-.3l3.3 6.2Zm12.2 9.2c.3.8.5 1.8.7 3l7-1c-.3-1.6-.6-3.1-1.2-4.6l-6.5 2.6Zm.7 3a26 26 0 0 1 0 6.1l7 .8a33 33 0 0 0 0-7.9l-7 1Zm-26 46 2.8 6.4-2.8-6.5ZM74.6 96l6.9 1.2-7-1.2Zm.1-10L70 81l-2.6 2.4.5 3.5 7-.9Zm-2-8.2-6.5 2.6 5 12.8 7.4-11.6-6-3.8Zm-20-12.6 1 7-1-7Zm-12 16.4-6.8 1.7 6.8-1.7Zm20 11.4.7 7-.8-7Zm6.6-1.9 7 .8 1.4-12.5-11.3 5.4 3 6.3Zm19-40.6-6.8 1.2 6.9-1.2Zm-13-34.3.6-7L60 8.2 67.3 20l6-3.7Zm23.6 1.2 4 5.7-4-5.7Zm.5-2.6-2.8 6.4 2.8-6.4Zm-28.1-2.8-3.7 6 3.7-6Zm-4.4.6L62 19l2.8-6.4Zm0 0 2.8-6.4-2.8 6.4Zm-4.2 0 6 3.8-6-3.7Zm.5 3.4 6.8 1.6.5-2.2-.8-2-6.5 2.6Zm-5.7 29.6-4 5.8 4-5.8Zm5.3.7 4 5.7-4-5.7ZM67 20l6.2-3.3L63.9-.8l-3.8 19.4L67 20Zm11.6 37.5-7-.2 7 .2Zm-19.2 55 5.8 4-5.8-4Zm-24.2 11.7c-1 .4-3 1.5-4 3.8-1.5 2.9-.7 5.8.6 7.6a8.5 8.5 0 0 0 3.4 2.7c1 .5 2 .7 2.9.9 3.5.6 8 0 13.2-2l-5.1-13a13 13 0 0 1-5.8 1.2l.6.2c.3 0 1.3.6 2.2 1.8 1 1.5 1.8 4 .5 6.7-1 2-2.6 2.8-3 3l-5.5-12.9Zm16.1 13a31 31 0 0 0 8.5-5.9c2.9-2.5 6-5.8 8.8-9.3 5.6-6.9 11.4-16 12.9-24.7L67.7 95c-.9 5-4.8 11.8-10 18.2a70.5 70.5 0 0 1-11.1 10.7l-.4.2 5.1 13Zm30.2-39.9c.6-3.9.7-8 .2-12.1l-14 1.7c.4 2.8.4 5.6 0 8l13.8 2.4Zm-2.3-22c-2-4.8-5.1-9.6-9.8-12.9-4.8-3.4-10.8-4.9-17.5-4l1.8 13.9c3.5-.5 5.9.3 7.6 1.6 2 1.3 3.7 3.6 4.9 6.6l13-5.2Zm-27.3-17c-5 .7-9.2 2.2-12.4 4.5a16 16 0 0 0-6.1 8.7c-1.6 5.8.4 11.5.5 12l13.6-3.6c-.5-2-1-3.3-.6-4.6 0-.3.2-.7.9-1.2a13 13 0 0 1 5.9-1.8l-1.8-14Zm-18 25.1a22 22 0 0 0 8.5 12.3 27 27 0 0 0 19 4.4l-1.5-14c-4.8.6-7.7-.6-9.4-1.8a8 8 0 0 1-3-4.4l-13.6 3.5Zm27.5 16.7c3.1-.3 6.1-1.2 9-2.6l-6-12.6c-1.6.7-3 1.1-4.5 1.3l1.5 13.9Zm18.2-9a47.7 47.7 0 0 0 13.7-41.7l-13.8 2.4c2 11.1-2.7 22.6-9.6 29.2L79.6 91Zm13.7-41.7c-3-17.2-11-31.6-14-36.7l-12 7.3a98.5 98.5 0 0 1 12.2 31.8l13.8-2.4ZM72.7 23.3a529.6 529.6 0 0 0 21 1.4 35.3 35.3 0 0 0 4-.2c.2 0 1.8-.3 3.3-1.3l-8.2-11.4a6.5 6.5 0 0 1 2.5-1.1h.2-1.6l-6-.3-14-1-1.2 13.9Zm28.3-.1 1.3-1c.4-.4 1.5-1.3 2.2-2.8 1-2 1.4-4.8-.3-7.6-1.2-2-3.1-3-4-3.3l-5.6 12.8-.7-.4c-.4-.2-1-.8-1.5-1.6A6.4 6.4 0 0 1 92 13l.8-1.2.3-.3-.4.3 8.2 11.4Zm-.8-14.7c-1-.4-1.8-.6-2.1-.6l-1.5-.2-3.5-.4-9.2-.6a325.1 325.1 0 0 1-12.2-1.1 1.8 1.8 0 0 1 .2 0l1 .5-7.3 12c1.1.6 2.2 1 2.6 1a63.6 63.6 0 0 0 5.4.8l9.3.7 9 .7a82.4 82.4 0 0 1 3.7.4c.3 0-.3 0-1-.4l5.6-12.8ZM73 6.1C71 5 69 4.7 67.4 5c-1.4.1-2.6.6-3.1.8-.3 0-.6.2-.7.3-.1 0-.1 0 0 0 0 0 .5-.2 1.1-.2.6 0 1.7 0 3 .5L62 19a7.8 7.8 0 0 0 5.8.2l1-.4.5-.2-.6.1c-.7 0-2 0-3.2-.7L73 6Zm-5.3.2L62 19l5.6-12.8Zm0 0c-.4-.2-2.2-1-4.1-1.3-2.3-.3-6.4.1-8.9 4.1l12 7.4c-.7 1-1.6 1.7-2.8 2.2-1 .3-1.8.3-2 .2h-.4l.6.2 5.6-12.8ZM54.7 9a8.5 8.5 0 0 0-1.2 4.5 10.8 10.8 0 0 0 .9 4.3l.2.5v.2l13.1-5.1-.1-.4-.1-.2-.1-.2v.8c.1.5 0 1.7-.8 3L54.7 9Zm-.3 5.4A713.7 713.7 0 0 0 48.8 41a37.4 37.4 0 0 0-.4 4.9l.3 1.7c.2.5.8 2.4 2.8 3.8l8-11.5a6.8 6.8 0 0 1 2.9 4.8v.3l.2-1.8 1.4-7.6 4-18-13.6-3.2Zm-2.9 37a13.9 13.9 0 0 0 8.7 2.2c1 0 2.9-.4 4.6-1.6l-8.1-11.4a5.2 5.2 0 0 1 2.3-1h.2-.2l.5.3-8 11.5Zm13.3.6a7.4 7.4 0 0 0 2.5-3l.5-1.4.9-2.7 1.7-7.4c1.3-5.5 2.6-12 3.4-16.3l-13.7-2.7a650.3 650.3 0 0 1-5.5 24.5c0 .1 0 0 0 0l.4-.7c.2-.2.7-1 1.7-1.7L64.8 52Zm-4-28.9c2.6 5 5.4 11.6 7.5 18.2a56 56 0 0 1 3.3 16l14 .2c.2-5.9-1.7-13.5-4-20.6-2.3-7.2-5.4-14.6-8.4-20.3l-12.4 6.5Zm10.8 34.1c0 4.7-1.5 11.6-4.8 17l11.8 7.4c5-8 7-17.4 7-24.1l-14-.3ZM60.4 90.4c-.7 5.8-3 12.7-6.8 18.2l11.6 7.9c5-7.5 8.2-16.6 9.1-24.5l-14-1.6Zm-6.8 18.2c-4.8 7.1-9 11.6-18.4 15.6l5.5 12.9a51.4 51.4 0 0 0 24.5-20.6l-11.6-7.9Z"/>
</svg>