<svg width="110" height="130" viewBox="0 0 110 130" fill="none" xmlns="http://www.w3.org/2000/svg">
<path d="M35.6621 34.5461C30.5453 36.4223 19.116 38.9338 13.9946 38.9338C12.5173 38.9972 7.59278 38.9338 6.60789 37.4713C5.623 36.0087 4.63811 28.6957 13.9946 18.4575C23.351 8.2194 48.9582 -1.04369 65.2089 1.39397C81.4596 3.83162 82.9369 16.5074 81.952 17.4825C80.9671 18.4575 75.0578 15.0448 63.7316 18.4575C54.6706 21.1877 48.9582 29.6708 35.6621 34.5461Z" fill="white"/>
<path d="M44.5262 43.3216C42.1624 45.2717 35.0159 47.7094 27.2906 47.7094C17.9341 47.7094 9.07009 39.4214 10.5474 47.7094C11.3005 51.9344 18.7548 57.2975 22.8586 59.4101C28.9321 61.0352 44.6246 62.8229 58.8071 56.9725C76.5351 49.6595 84.4142 38.9338 84.9067 31.6209C85.3991 24.3079 83.9218 21.3827 80.9671 20.4077C78.0124 19.4326 73.5804 22.3578 68.656 24.7955C64.7164 26.7456 51.4204 37.6338 44.5262 43.3216Z" fill="white"/>
<path d="M51.2783 96.2776C45.9593 94.9272 35.0521 90.5273 30.8169 87.6284C29.5585 86.8445 25.5229 84.0049 25.5562 82.2423C25.5895 80.4798 29.0137 73.897 42.6853 70.7575C56.3569 67.618 82.9019 74.4802 94.9276 85.6869C106.953 96.8937 100.828 108.174 99.4483 108.42C98.0687 108.666 95.16 102.509 83.8156 98.9098C74.7401 96.0306 65.0993 99.7866 51.2783 96.2776Z" fill="white"/>
<path d="M53.5219 108.525C50.4369 108.794 43.1141 106.757 36.7256 102.385C28.9883 97.0887 26.462 85.2428 22.8798 92.9077C21.0537 96.815 24.1095 105.453 26.2786 109.517C30.3592 114.293 42.3001 124.649 57.4194 127.856C76.3184 131.865 89.0509 127.488 93.6968 121.741C98.3427 115.995 98.8165 112.748 96.9383 110.272C95.0601 107.797 89.6995 107.698 84.2143 106.919C79.8262 106.296 62.52 107.741 53.5219 108.525Z" fill="white"/>
</svg>
