<svg xmlns="http://www.w3.org/2000/svg" width="195" height="103" fill="none">
  <path fill="#fff" d="M115.17 27.62c2.92-3.3 8.11-6.86 10.35-8.23 14.33 3.9 20.04 41.96-5.79 67.3-25.78 25.3-68.88 14.1-75.94-10.74a61.25 61.25 0 0 1-2.1-11.74C26.26 49.87 4.61 35.8 3.24 36.2c2.6-1.34 11.16-16.26 15.13-23.58.46 2.88 18.41 14.32 27.33 19.69 1.86-5.87 3.84-10.11 4.83-11.81 2.82-4.87 9.84-10.05 11.4-10.36 1.56-.31 4.58.17 7.95 1.8 3.36 1.62 9.2 12.57 10.36 14.44 1.15 1.88 4.56 10.62 4.87 12.2.24 1.27-.83 2.82-1.4 3.44.4.4 2.08 1.3 5.56 1.6 4.35.37 22.26-11.88 25.9-16.01Z"/>
  <g stroke="#FF80AE" stroke-linecap="round" stroke-linejoin="round">
    <path stroke-width="3" d="M45.7 32.32c1.86-5.87 3.84-10.11 4.83-11.81 2.82-4.87 9.84-10.05 11.4-10.36 1.56-.31 4.58.17 7.95 1.8 3.36 1.62 9.2 12.57 10.36 14.44 1.15 1.88 4.56 10.62 4.87 12.2.24 1.27-.83 2.82-1.4 3.44.4.4 2.08 1.3 5.56 1.6 4.35.37 22.26-11.88 25.9-16.01 2.92-3.3 8.11-6.86 10.35-8.23 14.33 3.9 20.04 41.96-5.79 67.3-25.78 25.3-68.88 14.1-75.94-10.74a61.25 61.25 0 0 1-2.1-11.74m4-31.9c-2.61 8.28-5 19.78-4 31.9m4-31.9c-8.9-5.36-26.86-16.8-27.32-19.68-4 7.36-12.61 22.39-15.17 23.6.91-.75 22.89 13.47 38.5 27.98"/>
    <path stroke-width="1.5" d="M31.76 35.4c-1.53-.66-2.9.04-3 .73-.2 1.64 1.3 3.49 3.27 3.62m.11-2.83c1.16.18 2.67 1.3 2.61 2.48-.1 2.02-2.63 2.01-3.76 1.77m-3.6-6.43c.11-.9.78-2.67 2.58-2.6 1.8.08 3.4 2.1 3.98 3.11m1.16.5c.21.47.86 1.56 1.7 2.13 1.06.73 1.79 1.85.9 2.78-.89.93-1.92.65-2.26.94m-7.31-2.46c.04 1.15.54 3.64 2.3 4.35 1.75.7 3.1-.4 3.56-1.04m-7.56-7.8c-.86.76-2.51 1.8-1.94 3.53.58 1.72 2.15 3.2 2.94 3.49m4.8-9.98c1.3.55 1.98-.8 3.7.32 2.13 1.4 1.78 3.76 1.9 4.51m-2.25 6.93c-.13 1.03-.82 3.06-2.56 2.93-2.17-.16-3.16-1.3-3.49-1.81m-1.45-.95c-.14-.05-3.44-1.03-3.78-1.39-.34-.36-.7-2.58-.92-3.49m.04-2.27c-.16-.44-.67-1.58-.57-2.52.22-1.92 2.17-2.13 4.76-2.06"/>
  </g>
  <g fill="#FF80AE">
    <path d="M22.18 31.94c.43-.43-.22-1.52-.6-2.01 2.18.52 2.75.39 3.32-.28.54-.64-.04-2.15-2.48-3.26-1.96-.9-5.06-1.16-6.38-1.11-.05.79 3.58 6.05 4.03 6.43.45.37 1.58.77 2.11.23ZM21.17 37.62c-.05-.52-1.11-.7-1.64-.73 1.54-1.12 1.77-1.56 1.65-2.3-.11-.7-1.4-1.17-3.48-.2a14.68 14.68 0 0 0-4.25 3.51c.48.47 5.9 1.04 6.4.95.49-.08 1.37-.59 1.32-1.23Z"/>
    <path d="M59.66 65.92c-1.68-1.97-3.86-2.25-5.69-.7-1.98 1.67-1.7 3.76-.04 5.97 1.66 2.2 4.36 2.89 5.57 2.07 1.22-.82 2.25-4.86.16-7.34ZM105.77 69.32c-1.78-2.1-5.58-1.85-7.32-.38-.92.77-2.85 3.9-1.2 6.1 1.66 2.2 5.77 3.39 7.42 2 1.87-1.59 3.4-5 1.1-7.72ZM75.18 78.02c-2.49-.44-5.6-4.38-4.61-5.21.98-.84 2.33 2.28 4.6 2.68 2.49.44 3.92-3.46 4.3-1.94.16.7-1.47 4.96-4.29 4.47ZM191.2 19.1c-3.24-2.67-10.31 2.51-13.44 5.44 2.18-15.32.92-19.18-4.01-22.64-4.71-3.3-14.7 1.59-20.8 19.1-4.9 14.02-4.75 35.49-3.63 44.53 5.45-.14 39.31-28.42 41.6-31.77 2.28-3.35 4.32-11.33.28-14.67Z"/>
  </g>
</svg>