<svg xmlns="http://www.w3.org/2000/svg" width="195" height="103" fill="none">
  <path fill="#fff" d="M115.2 27.6c2.9-3.3 8-6.8 10.3-8.2 14.3 3.9 20 42-5.8 67.3-25.8 25.3-68.9 14-76-10.8a61.3 61.3 0 0 1-2-11.7C26.3 50 4.7 35.8 3.2 36.2c2.6-1.3 11.2-16.3 15.2-23.6.4 2.9 18.4 14.3 27.3 19.7a66 66 0 0 1 4.8-11.8c2.9-4.9 9.9-10 11.4-10.4 1.6-.3 4.6.2 8 1.8 3.3 1.7 9.2 12.6 10.3 14.5a86 86 0 0 1 5 12.2c.1 1.2-1 2.8-1.5 3.4.4.4 2 1.3 5.6 1.6 4.3.4 22.2-11.9 25.9-16Z"/>
  <g stroke="#FF80AE" stroke-linecap="round" stroke-linejoin="round">
    <path stroke-width="3" d="M45.7 32.3a66 66 0 0 1 4.8-11.8c2.9-4.9 9.9-10 11.4-10.4 1.6-.3 4.6.2 8 1.8 3.3 1.7 9.2 12.6 10.3 14.5a86 86 0 0 1 5 12.2c.1 1.3-1 2.8-1.5 3.4.4.4 2 1.3 5.6 1.6 4.3.4 22.2-11.8 25.9-16 2.9-3.3 8-6.8 10.3-8.2 14.3 3.9 20 42-5.8 67.3-25.8 25.3-68.9 14-76-10.8a61.3 61.3 0 0 1-2-11.7m4-31.9c-2.6 8.3-5 19.8-4 32m4-32c-9-5.3-26.9-16.8-27.3-19.7C14.4 20 5.8 35 3.2 36.2c1-.7 22.9 13.5 38.5 28"/>
    <path stroke-width="1.5" d="M31.8 35.4c-1.6-.7-3 0-3 .7-.2 1.7 1.3 3.5 3.2 3.6m.1-2.8c1.2.2 2.7 1.3 2.6 2.5 0 2-2.6 2-3.7 1.8m-3.6-6.5c.1-.9.8-2.6 2.6-2.6 1.8.1 3.4 2.1 4 3.1m1.1.5c.2.5.9 1.6 1.7 2.2 1 .7 1.8 1.8 1 2.8-1 .9-2 .6-2.4.9m-7.3-2.5c0 1.2.6 3.7 2.3 4.4a3 3 0 0 0 3.6-1m-7.6-7.9c-.8.8-2.5 1.8-1.9 3.6a6.5 6.5 0 0 0 3 3.5m4.7-10c1.3.5 2-.8 3.7.3 2.2 1.4 1.8 3.8 2 4.5m-2.3 7c-.1 1-.8 3-2.6 2.9-2.1-.2-3.1-1.3-3.5-1.8m-1.4-1c-.2 0-3.5-1-3.8-1.4-.3-.3-.7-2.6-1-3.5m.1-2.2c-.1-.5-.6-1.6-.5-2.6.2-1.9 2.1-2 4.7-2"/>
  </g>
  <g fill="#FF80AE">
    <path d="M22.2 32c.4-.5-.2-1.6-.6-2 2.2.4 2.7.3 3.3-.4.5-.6 0-2.1-2.5-3.2-2-1-5-1.2-6.4-1.1 0 .8 3.6 6 4 6.4.5.4 1.7.8 2.2.2Zm-1 5.6c0-.5-1.1-.7-1.7-.7 1.6-1.1 1.8-1.6 1.7-2.3-.1-.7-1.4-1.2-3.5-.2a14.7 14.7 0 0 0-4.3 3.5c.5.5 6 1 6.4 1 .5-.1 1.4-.6 1.4-1.3ZM59.7 66c-1.7-2-3.9-2.3-5.7-.8-2 1.7-1.7 3.8 0 6 1.6 2.2 4.3 2.9 5.5 2 1.2-.8 2.3-4.8.2-7.3Zm46 3.3c-1.7-2-5.5-1.8-7.3-.4-.9.8-2.8 4-1.2 6.1 1.7 2.2 5.8 3.4 7.5 2 1.8-1.6 3.4-5 1-7.7ZM75.3 78c-2.5-.4-5.6-4.4-4.6-5.2 1-.8 2.3 2.3 4.6 2.7 2.5.4 3.9-3.5 4.3-2 .1.8-1.5 5-4.3 4.5Zm116-58.9c-3.2-2.7-10.3 2.5-13.4 5.4 2.1-15.3.9-19.1-4-22.6C169-1.4 159 3.5 152.8 21a119 119 0 0 0-3.6 44.5c5.5-.1 39.3-28.4 41.6-31.7 2.3-3.4 4.3-11.4.3-14.7Z"/>
  </g>
</svg>