<svg width="369" height="247" viewBox="0 0 369 247" fill="none" xmlns="http://www.w3.org/2000/svg">
<path d="M341.5 172L329.5 159.5L319 172L329.5 182.5L341.5 172Z" fill="white"/>
<path d="M329.5 138V159.5M329.5 159.5L341.5 172M329.5 159.5L319 172M341.5 172H363.5M341.5 172L329.5 182.5M329.5 182.5V206M329.5 182.5L319 172M319 172H295" stroke="white" stroke-width="10" stroke-linecap="round" stroke-linejoin="round"/>
<path d="M259.62 216.5L250.686 207.125L242.869 216.5L250.686 224.375L259.62 216.5Z" fill="white"/>
<path d="M250.686 191V207.125M250.686 207.125L259.62 216.5M250.686 207.125L242.869 216.5M259.62 216.5H276M259.62 216.5L250.686 224.375M250.686 224.375V242M250.686 224.375L242.869 216.5M242.869 216.5H225" stroke="white" stroke-width="10" stroke-linecap="round" stroke-linejoin="round"/>
<path d="M88.5464 89.9642C79.4321 103.773 83.7625 118.504 90.3982 120.607C106.113 125.586 126.919 114.091 131.735 95.0442M104.182 88.8762C108.083 77.8422 121.715 65.0246 133.136 67.7491C152.796 72.4387 148.178 97.0908 143.722 107.759M74.2959 131.583C65.7117 128.919 49.5321 119.201 53.4872 101.637C57.4423 84.0739 80.1897 72.0297 91.069 68.203M97.9701 57.7477C102.996 56.4616 114.843 52.0727 122.026 44.8058C131.005 35.7221 143.312 30.6362 150.803 40.984C158.293 51.3317 153.743 60.9372 155.964 64.8047M118.717 132.083C130.113 133.802 155.417 133.252 165.464 117.307C175.511 101.362 167.117 86.1759 161.664 80.5757M71.7514 140.721C77.5804 150.573 84.8626 168.589 102.792 166.013C120.722 163.438 138.076 150.665 142.261 143.421M53.1014 78.5771C60.8307 66.8668 48.8306 57.7452 62.8646 42.9919C80.407 24.5503 102.908 32.1866 110.519 32.4072M174.372 66.7476C184.248 69.8642 202.901 80.2948 198.502 97.0847C193.003 118.072 180.148 125.797 174.478 128.059M162.598 140.633C161.77 141.887 146.324 172.521 142.177 175.187C138.031 177.854 115.612 177.466 106.342 177.952M84.1932 173.54C79.5356 174.268 67.5043 177.288 58.456 174.565C40.0372 169.022 41.4607 149.547 46.8138 124.261" stroke="white" stroke-width="5" stroke-linecap="round" stroke-linejoin="round"/>
</svg>
