<svg width="367" height="226" viewBox="0 0 367 226" fill="none" xmlns="http://www.w3.org/2000/svg">
<path d="M49.5005 112.5C49.5 126 51.0005 154 82.5005 169C114.422 184.201 142.5 168.833 152 160.5M49.5005 112.5C46.3009 112.5 41.5003 108.167 39.5 106M49.5005 112.5C53.5009 113.3 59.5003 110.167 62 108.5M152 160.5C149.201 156.9 149.167 151 149.5 148.5M152 160.5C154.001 164.5 162.167 164.833 166 164.5" stroke="white" stroke-width="5" stroke-linecap="round"/>
<circle cx="112" cy="112" r="109.5" stroke="white" stroke-width="5" stroke-linecap="round"/>
<ellipse cx="99.2341" cy="68" rx="9.75321" ry="19.7213" transform="rotate(26.9245 99.2341 68)" fill="white"/>
<ellipse cx="155.626" cy="95" rx="9.75321" ry="19.7213" transform="rotate(26.9245 155.626 95)" fill="white"/>
<path d="M339.5 187L327.5 174.5L317 187L327.5 197.5L339.5 187Z" fill="white"/>
<path d="M327.5 153V174.5M327.5 174.5L339.5 187M327.5 174.5L317 187M339.5 187H361.5M339.5 187L327.5 197.5M327.5 197.5V221M327.5 197.5L317 187M317 187H293" stroke="white" stroke-width="10" stroke-linecap="round" stroke-linejoin="round"/>
<path d="M276.62 161.5L267.686 152.125L259.869 161.5L267.686 169.375L276.62 161.5Z" fill="white"/>
<path d="M267.686 136V152.125M267.686 152.125L276.62 161.5M267.686 152.125L259.869 161.5M276.62 161.5H293M276.62 161.5L267.686 169.375M267.686 169.375V187M267.686 169.375L259.869 161.5M259.869 161.5H242" stroke="white" stroke-width="10" stroke-linecap="round" stroke-linejoin="round"/>
</svg>
