<svg width="459" height="137" viewBox="0 0 459 137" fill="none" xmlns="http://www.w3.org/2000/svg">
<path d="M431.5 76L419.5 63.5L409 76L419.5 86.5L431.5 76Z" fill="white"/>
<path d="M419.5 42V63.5M419.5 63.5L431.5 76M419.5 63.5L409 76M431.5 76H453.5M431.5 76L419.5 86.5M419.5 86.5V110M419.5 86.5L409 76M409 76H385" stroke="white" stroke-width="10" stroke-linecap="round" stroke-linejoin="round"/>
<path d="M359.19 110.5L351.657 102.596L345.066 110.5L351.657 117.14L359.19 110.5Z" fill="white"/>
<path d="M351.657 89V102.596M351.657 102.596L359.19 110.5M351.657 102.596L345.066 110.5M359.19 110.5H373M359.19 110.5L351.657 117.14M351.657 117.14V132M351.657 117.14L345.066 110.5M345.066 110.5H330" stroke="white" stroke-width="10" stroke-linecap="round" stroke-linejoin="round"/>
<path d="M181.19 36.5L173.657 28.5956L167.066 36.5L173.657 43.1397L181.19 36.5Z" fill="white"/>
<path d="M173.657 15V28.5956M173.657 28.5956L181.19 36.5M173.657 28.5956L167.066 36.5M181.19 36.5H195M181.19 36.5L173.657 43.1397M173.657 43.1397V58M173.657 43.1397L167.066 36.5M167.066 36.5H152" stroke="white" stroke-width="10" stroke-linecap="round" stroke-linejoin="round"/>
<path d="M49.3439 63.6276C59.4062 63.6276 65.4326 56.4295 64.2767 52.3201C61.5394 42.5881 48.7344 35.8171 37.4536 39.7901M43.5537 55.9874C36.646 57.7192 25.5734 55.0705 23.1299 48.2996C18.9239 36.645 32.9835 30.6761 39.8912 29.3518M75.2425 56.8566C76.7662 62.1538 77.2538 73.7262 67.0142 77.638C56.7746 81.5498 43.0406 73.9707 37.4536 69.6922M29.8348 69.6922C27.4984 67.553 21.3018 62.9689 15.2068 61.7464C7.58802 60.2183 0.88352 55.6343 3.62627 48.2996C6.36902 40.9649 12.7688 40.0481 13.9878 37.6032M60.6146 33.9359C57.6688 27.5181 48.9125 14.7437 37.4536 14.9881C25.9946 15.2326 21.0985 24.6658 20.0828 29.3518M80.7332 55.0705C83.7807 48.7546 90.4852 38.9344 83.1712 30.6218C75.8572 22.3092 63.5604 17.7386 58.4812 18.0442M55.4389 85.6315C46.9057 85.6315 46.2962 94.8613 34.1062 92.661C18.8688 89.9105 15.2067 75.8045 12.7687 71.8316M8.80693 27.5181C7.08002 21.406 6.12513 8.32597 16.1209 4.90315C28.6157 0.624617 36.8434 4.59754 39.8912 6.73681M50.253 8.57046C51.1672 8.57046 71.8902 6.12559 74.633 7.34803C77.3757 8.57046 84.6897 20.1837 88.042 24.7678M93.2227 37.6032C95.1528 39.7426 100.716 44.8841 102.365 50.4389C105.723 61.7464 95.361 67.6011 80.7332 73.4077" stroke="white" stroke-width="5" stroke-linecap="round" stroke-linejoin="round"/>
</svg>
