<svg width="115" height="110" viewBox="0 0 115 110" fill="none" xmlns="http://www.w3.org/2000/svg">
<path d="M87.5 71L75.5 58.5L65 71L75.5 81.5L87.5 71Z" fill="white"/>
<path d="M75.5 37V58.5M75.5 58.5L87.5 71M75.5 58.5L65 71M87.5 71H109.5M87.5 71L75.5 81.5M75.5 81.5V105M75.5 81.5L65 71M65 71H41" stroke="white" stroke-width="10" stroke-linecap="round" stroke-linejoin="round"/>
<path d="M34.1898 26.5L26.6569 18.5956L20.0657 26.5L26.6569 33.1397L34.1898 26.5Z" fill="white"/>
<path d="M26.6569 5V18.5956M26.6569 18.5956L34.1898 26.5M26.6569 18.5956L20.0657 26.5M34.1898 26.5H48M34.1898 26.5L26.6569 33.1397M26.6569 33.1397V48M26.6569 33.1397L20.0657 26.5M20.0657 26.5H5" stroke="white" stroke-width="10" stroke-linecap="round" stroke-linejoin="round"/>
</svg>
