<svg width="50" height="50" viewBox="0 0 50 50" fill="none" xmlns="http://www.w3.org/2000/svg">
<path d="M10.4053 28.6484C19.5945 27.0268 33.1081 27.0268 39.5946 28.6484L42.2973 15.1349L34.1891 27.5673L33.8648 12.324L28.2432 27.0268L24.9999 11.3511L21.7567 27.0268L16.1351 12.324L15.8108 27.5673L7.70264 15.1349L10.4053 28.6484Z" fill="#FF80AE" stroke="white" stroke-width="1.5" stroke-linejoin="round"/>
<path d="M10.4058 28.6483C10.4058 30.8105 12.0274 30.8105 13.1085 32.9727C14.1895 34.5943 14.1895 34.0538 13.649 36.7565C12.0274 37.8375 12.5679 39.4592 12.5679 39.4592C10.9463 41.0808 12.5679 42.1619 12.5679 42.1619C19.595 43.243 30.4058 43.243 37.4328 42.1619C37.4328 42.1619 39.0544 41.0808 37.4328 39.4592C37.4328 39.4592 37.9733 37.8375 36.3517 36.7565C35.8112 34.0538 35.8112 34.5943 36.8923 32.9727C37.9733 30.8105 39.595 30.8105 39.595 28.6483C30.4058 27.0267 19.595 27.0267 10.4058 28.6483Z" fill="#FF80AE" stroke="white" stroke-width="1.5" stroke-linejoin="round"/>
<path d="M13.1079 32.9729C16.8917 31.8918 33.1079 31.8918 36.8917 32.9729H13.1079Z" fill="#FF80AE"/>
<path d="M13.1079 32.9729C16.8917 31.8918 33.1079 31.8918 36.8917 32.9729" stroke="white" stroke-width="1.5" stroke-linejoin="round"/>
<path d="M13.6489 36.7566C20.1354 35.6755 29.8652 35.6755 36.3516 36.7566H13.6489Z" fill="#FF80AE"/>
<path d="M13.6489 36.7566C20.1354 35.6755 29.8652 35.6755 36.3516 36.7566" stroke="white" stroke-width="1.5" stroke-linejoin="round"/>
<path d="M7.16216 15.6754C8.35629 15.6754 9.32433 14.7074 9.32433 13.5132C9.32433 12.3191 8.35629 11.3511 7.16216 11.3511C5.96803 11.3511 5 12.3191 5 13.5132C5 14.7074 5.96803 15.6754 7.16216 15.6754Z" fill="#FF80AE" stroke="white" stroke-width="1.5" stroke-linejoin="round"/>
<path d="M15.8111 12.4322C17.0052 12.4322 17.9733 11.4642 17.9733 10.2701C17.9733 9.07594 17.0052 8.10791 15.8111 8.10791C14.617 8.10791 13.6489 9.07594 13.6489 10.2701C13.6489 11.4642 14.617 12.4322 15.8111 12.4322Z" fill="#FF80AE" stroke="white" stroke-width="1.5" stroke-linejoin="round"/>
<path d="M25.0001 11.3512C26.1942 11.3512 27.1622 10.3831 27.1622 9.18902C27.1622 7.99489 26.1942 7.02686 25.0001 7.02686C23.8059 7.02686 22.8379 7.99489 22.8379 9.18902C22.8379 10.3831 23.8059 11.3512 25.0001 11.3512Z" fill="#FF80AE" stroke="white" stroke-width="1.5" stroke-linejoin="round"/>
<path d="M34.189 12.4322C35.3831 12.4322 36.3512 11.4642 36.3512 10.2701C36.3512 9.07594 35.3831 8.10791 34.189 8.10791C32.9949 8.10791 32.0269 9.07594 32.0269 10.2701C32.0269 11.4642 32.9949 12.4322 34.189 12.4322Z" fill="#FF80AE" stroke="white" stroke-width="1.5" stroke-linejoin="round"/>
<path d="M42.8379 15.6754C44.0321 15.6754 45.0001 14.7074 45.0001 13.5132C45.0001 12.3191 44.0321 11.3511 42.8379 11.3511C41.6438 11.3511 40.6758 12.3191 40.6758 13.5132C40.6758 14.7074 41.6438 15.6754 42.8379 15.6754Z" fill="#FF80AE" stroke="white" stroke-width="1.5" stroke-linejoin="round"/>
</svg>
