<svg width="35" height="45" viewBox="0 0 35 45" fill="none" xmlns="http://www.w3.org/2000/svg">
<path d="M14.456 22.424C13.2827 20.312 11.992 18.2 10.584 16.088C9.19733 13.9547 7.832 11.9813 6.488 10.168C5.16533 8.33333 3.992 6.78666 2.968 5.528C1.96533 4.248 1.26133 3.384 0.856 2.936C1.368 2.68 1.99733 2.41333 2.744 2.136C3.49067 1.83733 4.26933 1.56 5.08 1.304C5.89067 1.048 6.66933 0.823997 7.416 0.631996C8.184 0.418663 8.83467 0.26933 9.368 0.183998C9.85867 0.845332 10.4773 1.77333 11.224 2.968C11.9707 4.14133 12.7813 5.47466 13.656 6.968C14.5307 8.46133 15.416 10.008 16.312 11.608C17.2293 13.1867 18.0827 14.712 18.872 16.184C19.7467 14.8613 20.5787 13.4533 21.368 11.96C22.1787 10.4667 22.9147 9.00533 23.576 7.576C24.2587 6.12533 24.8347 4.81333 25.304 3.64C25.7733 2.46666 26.1253 1.528 26.36 0.823997C27.512 0.994665 28.6 1.24 29.624 1.56C30.648 1.85867 31.5547 2.18933 32.344 2.552C33.1547 2.89333 33.7733 3.224 34.2 3.544C33.56 5.03733 32.7173 6.66933 31.672 8.44C30.648 10.2107 29.5493 11.9707 28.376 13.72C27.224 15.4693 26.136 17.0587 25.112 18.488C24.088 19.9173 23.288 21.0373 22.712 21.848C23.3307 22.68 24.0667 23.7573 24.92 25.08C25.7733 26.4027 26.6693 27.8427 27.608 29.4C28.568 30.9573 29.496 32.5147 30.392 34.072C31.288 35.608 32.0987 37.0373 32.824 38.36C33.5707 39.6613 34.1467 40.7173 34.552 41.528C33.8693 41.9547 33.0693 42.3493 32.152 42.712C31.256 43.0533 30.3493 43.3413 29.432 43.576C28.536 43.8107 27.736 43.9813 27.032 44.088C26.4987 42.8293 25.8373 41.368 25.048 39.704C24.2587 38.04 23.3413 36.2587 22.296 34.36C21.272 32.44 20.1413 30.488 18.904 28.504C18.5627 29.1013 18.104 29.8693 17.528 30.808C16.952 31.7467 16.3013 32.76 15.576 33.848C14.8507 34.9147 14.1253 35.992 13.4 37.08C12.6747 38.168 11.992 39.1707 11.352 40.088C10.7333 41.0053 10.2 41.7733 9.752 42.392C9.32533 42.9893 9.05867 43.352 8.952 43.48C7.65067 43.3307 6.40267 43.096 5.208 42.776C4.01333 42.4347 2.616 41.9973 1.016 41.464C2.232 39.9067 3.49067 38.2533 4.792 36.504C6.11467 34.7333 7.39467 32.984 8.632 31.256C9.86933 29.5067 10.9893 27.8747 11.992 26.36C13.016 24.8453 13.8373 23.5333 14.456 22.424Z" fill="white"/>
</svg>
