<svg width="395" height="1120" viewBox="0 0 395 1120" fill="none" xmlns="http://www.w3.org/2000/svg">
<g filter="url(#filter0_d_300_14)">
<path d="M145.719 1081.42V1094H141.539V1072.79H145.562V1076.27H145.797C146.812 1074 148.883 1072.52 152.047 1072.52C156.422 1072.52 159.273 1075.25 159.273 1080.52V1094H155.133V1081.03C155.133 1077.95 153.453 1076.11 150.641 1076.11C147.789 1076.11 145.719 1078.02 145.719 1081.42ZM174.469 1072.79V1076.11H169.898V1094H165.719V1076.11H162.438V1072.79H165.719V1070.33C165.719 1066.54 168.141 1064.39 172.047 1064.39C173.062 1064.39 174.078 1064.51 174.898 1064.66V1068.14C174.117 1068.02 173.531 1067.98 173.141 1067.98C170.914 1067.98 169.898 1068.88 169.898 1070.95V1072.79H174.469ZM186.383 1094.43C180.367 1094.43 176.461 1090.05 176.461 1083.49C176.461 1076.89 180.367 1072.52 186.383 1072.52C192.359 1072.52 196.266 1076.89 196.266 1083.49C196.266 1090.05 192.359 1094.43 186.383 1094.43ZM186.383 1090.95C190.211 1090.95 192.047 1087.55 192.047 1083.49C192.047 1079.43 190.211 1075.95 186.383 1075.95C182.477 1075.95 180.641 1079.43 180.641 1083.49C180.641 1087.55 182.477 1090.95 186.383 1090.95ZM200.367 1094V1072.79H204.391V1076.15H204.625C205.406 1073.88 207.516 1072.48 210.016 1072.48C210.523 1072.48 211.344 1072.52 211.773 1072.55V1076.54C211.422 1076.46 210.445 1076.3 209.586 1076.3C206.695 1076.3 204.547 1078.3 204.547 1081.07V1094H200.367ZM214.898 1094V1072.79H218.922V1076.27H219.156C220.055 1073.88 222.125 1072.52 224.938 1072.52C227.75 1072.52 229.742 1073.92 230.641 1076.27H230.875C231.891 1073.96 234.156 1072.52 237.242 1072.52C241.07 1072.52 243.805 1074.94 243.805 1079.78V1094H239.625V1080.17C239.625 1077.32 237.828 1076.11 235.641 1076.11C232.945 1076.11 231.422 1077.95 231.422 1080.48V1094H227.281V1079.94C227.281 1077.63 225.68 1076.11 223.414 1076.11C221.07 1076.11 219.078 1078.06 219.078 1080.91V1094H214.898ZM247.867 1088.02C247.867 1083.18 251.969 1081.93 255.797 1081.66C257.203 1081.56 260.387 1081.38 261.383 1081.34L261.344 1079.66C261.344 1077.28 259.898 1075.88 257.047 1075.88C254.586 1075.88 253.102 1077.01 252.672 1078.57H248.531C248.922 1075.05 252.203 1072.52 257.203 1072.52C260.562 1072.52 265.523 1073.77 265.523 1079.9V1094H261.461V1091.11H261.305C260.484 1092.71 258.531 1094.47 255.016 1094.47C250.992 1094.47 247.867 1092.16 247.867 1088.02ZM251.93 1088.06C251.93 1090.09 253.609 1091.15 255.953 1091.15C259.352 1091.15 261.383 1088.88 261.383 1086.34V1084.39C260.406 1084.47 257.359 1084.68 256.383 1084.74C253.648 1084.94 251.93 1085.95 251.93 1088.06ZM280.484 1072.79V1076.11H276.148V1087.75C276.148 1090.13 277.359 1090.56 278.688 1090.6C279.273 1090.6 280.211 1090.52 280.797 1090.48V1094.12C280.211 1094.2 279.312 1094.27 278.18 1094.27C274.898 1094.27 271.969 1092.48 272.008 1088.61V1076.11H268.883V1072.79H272.008V1067.71H276.148V1072.79H280.484ZM284.547 1094V1072.79H288.727V1094H284.547ZM286.656 1069.51C285.211 1069.51 284 1068.41 284 1067.05C284 1065.68 285.211 1064.59 286.656 1064.59C288.062 1064.59 289.273 1065.68 289.273 1067.05C289.273 1068.41 288.062 1069.51 286.656 1069.51ZM297.984 1081.42V1094H293.805V1072.79H297.828V1076.27H298.062C299.078 1074 301.148 1072.52 304.312 1072.52C308.688 1072.52 311.539 1075.25 311.539 1080.52V1094H307.398V1081.03C307.398 1077.95 305.719 1076.11 302.906 1076.11C300.055 1076.11 297.984 1078.02 297.984 1081.42Z" fill="white"/>
<path d="M150.523 802.43C144.508 802.43 140.602 798.055 140.602 791.492C140.602 784.891 144.508 780.516 150.523 780.516C156.5 780.516 160.406 784.891 160.406 791.492C160.406 798.055 156.5 802.43 150.523 802.43ZM150.523 798.953C154.352 798.953 156.188 795.555 156.188 791.492C156.188 787.43 154.352 783.953 150.523 783.953C146.617 783.953 144.781 787.43 144.781 791.492C144.781 795.555 146.617 798.953 150.523 798.953ZM177.984 793.172V780.789H182.125V802H178.062V798.328H177.828C176.852 800.594 174.664 802.273 171.5 802.273C167.398 802.273 164.508 799.539 164.508 794.266V780.789H168.688V793.758C168.688 796.648 170.445 798.484 172.984 798.484C175.289 798.484 177.984 796.805 177.984 793.172ZM187.203 802V780.789H191.227V784.148H191.461C192.242 781.883 194.352 780.477 196.852 780.477C197.359 780.477 198.18 780.516 198.609 780.555V784.539C198.258 784.461 197.281 784.305 196.422 784.305C193.531 784.305 191.383 786.297 191.383 789.07V802H187.203Z" fill="white"/>
<path d="M150.523 487.43C144.508 487.43 140.602 483.055 140.602 476.492C140.602 469.891 144.508 465.516 150.523 465.516C156.5 465.516 160.406 469.891 160.406 476.492C160.406 483.055 156.5 487.43 150.523 487.43ZM150.523 483.953C154.352 483.953 156.188 480.555 156.188 476.492C156.188 472.43 154.352 468.953 150.523 468.953C146.617 468.953 144.781 472.43 144.781 476.492C144.781 480.555 146.617 483.953 150.523 483.953ZM164.508 487V465.789H168.531V469.148H168.766C169.547 466.883 171.656 465.477 174.156 465.477C174.664 465.477 175.484 465.516 175.914 465.555V469.539C175.562 469.461 174.586 469.305 173.727 469.305C170.836 469.305 168.688 471.297 168.688 474.07V487H164.508Z" fill="white"/>
</g>
<path d="M135.373 917.838L93.0816 922.099V1113L135.373 1107.89V917.838Z" fill="#FF80AE"/>
<path d="M87.1011 615.721L41.8198 620.408L93.0816 740.147V807.048L134.091 803.639V735.886L183.644 609.755L140.072 613.164L115.295 688.587L87.1011 615.721Z" fill="#FF80AE"/>
<path d="M174.246 300.82L68.7323 309.768V501.947L110.596 498.112V417.15L165.702 413.315V374.112L110.596 378.373V345.562L174.246 339.17V300.82Z" fill="#FF80AE"/>
<path d="M135.373 917.838L93.0816 922.099V1113L135.373 1107.89V917.838Z" stroke="white" stroke-width="2"/>
<path d="M87.1011 615.721L41.8198 620.408L93.0816 740.147V807.048L134.091 803.639V735.886L183.644 609.755L140.072 613.164L115.295 688.587L87.1011 615.721Z" stroke="white" stroke-width="2"/>
<path d="M174.246 300.82L68.7323 309.768V501.947L110.596 498.112V417.15L165.702 413.315V374.112L110.596 378.373V345.562L174.246 339.17V300.82Z" stroke="white" stroke-width="2"/>
<path d="M125.917 908.383L83.6265 912.644V1103.54L125.917 1098.43V908.383Z" fill="#FF80AE"/>
<path d="M77.646 606.266L32.3647 610.953L83.6265 730.692V797.592L124.636 794.184V726.431L174.189 600.3L130.616 603.709L105.84 679.132L77.646 606.266Z" fill="#FF80AE"/>
<path d="M164.791 291.365L59.2772 300.313V492.492L101.141 488.657V407.695L156.247 403.86V364.657L101.141 368.918V336.107L164.791 329.715V291.365Z" fill="#FF80AE"/>
<path d="M125.917 908.383L83.6265 912.644V1103.54L125.917 1098.43V908.383Z" stroke="white" stroke-width="2"/>
<path d="M77.646 606.266L32.3647 610.953L83.6265 730.692V797.592L124.636 794.184V726.431L174.189 600.3L130.616 603.709L105.84 679.132L77.646 606.266Z" stroke="white" stroke-width="2"/>
<path d="M164.791 291.365L59.2772 300.313V492.492L101.141 488.657V407.695L156.247 403.86V364.657L101.141 368.918V336.107L164.791 329.715V291.365Z" stroke="white" stroke-width="2"/>
<path d="M116.462 898.928L74.1714 903.189V1094.09L116.462 1088.98V898.928Z" fill="#FF80AE"/>
<path d="M68.1909 596.811L22.9097 601.498L74.1714 721.237V788.137L115.181 784.728V716.976L164.734 590.845L121.161 594.254L96.3849 669.677L68.1909 596.811Z" fill="#FF80AE"/>
<path d="M155.336 281.91L49.8221 290.858V483.037L91.6859 479.202V398.24L146.792 394.405V355.202L91.6859 359.463V326.652L155.336 320.26V281.91Z" fill="#FF80AE"/>
<path d="M116.462 898.928L74.1714 903.189V1094.09L116.462 1088.98V898.928Z" stroke="white" stroke-width="2"/>
<path d="M68.1909 596.811L22.9097 601.498L74.1714 721.237V788.137L115.181 784.728V716.976L164.734 590.845L121.161 594.254L96.3849 669.677L68.1909 596.811Z" stroke="white" stroke-width="2"/>
<path d="M155.336 281.91L49.8221 290.858V483.037L91.6859 479.202V398.24L146.792 394.405V355.202L91.6859 359.463V326.652L155.336 320.26V281.91Z" stroke="white" stroke-width="2"/>
<path d="M107.008 889.473L64.7169 893.735V1084.64L107.008 1079.52V889.473Z" fill="#FF80AE"/>
<path d="M58.7363 587.356L13.4551 592.043L64.7169 711.782V778.683L105.726 775.274V707.521L155.279 581.39L111.707 584.799L86.9303 660.222L58.7363 587.356Z" fill="#FF80AE"/>
<path d="M145.881 272.455L40.3675 281.404V473.583L82.2313 469.748V388.785L137.338 384.95V345.747L82.2313 350.008V317.197L145.881 310.806V272.455Z" fill="#FF80AE"/>
<path d="M107.008 889.473L64.7169 893.735V1084.64L107.008 1079.52V889.473Z" stroke="white" stroke-width="2"/>
<path d="M58.7363 587.356L13.4551 592.043L64.7169 711.782V778.683L105.726 775.274V707.521L155.279 581.39L111.707 584.799L86.9303 660.222L58.7363 587.356Z" stroke="white" stroke-width="2"/>
<path d="M145.881 272.455L40.3675 281.404V473.583L82.2313 469.748V388.785L137.338 384.95V345.747L82.2313 350.008V317.197L145.881 310.806V272.455Z" stroke="white" stroke-width="2"/>
<path d="M97.5527 880.018L55.2618 884.279V1075.18L97.5527 1070.07V880.018Z" fill="white"/>
<path d="M49.2812 577.901L4 582.588L55.2618 702.327V769.228L96.2712 765.819V698.066L145.824 571.935L102.252 575.344L77.4752 650.767L49.2812 577.901Z" fill="white"/>
<path d="M136.426 263L30.9124 271.948V464.128L72.7762 460.292V379.33L127.883 375.495V336.292L72.7762 340.553V307.742L136.426 301.351V263Z" fill="white"/>
<path d="M97.5527 880.018L55.2618 884.279V1075.18L97.5527 1070.07V880.018Z" stroke="white" stroke-width="5"/>
<path d="M49.2812 577.901L4 582.588L55.2618 702.327V769.228L96.2712 765.819V698.066L145.824 571.935L102.252 575.344L77.4752 650.767L49.2812 577.901Z" stroke="white" stroke-width="5"/>
<path d="M136.426 263L30.9124 271.948V464.128L72.7762 460.292V379.33L127.883 375.495V336.292L72.7762 340.553V307.742L136.426 301.351V263Z" stroke="white" stroke-width="5"/>
<path d="M352.292 8.15078C329.025 10.6346 284.483 24.4665 248.15 57.9979C203.28 99.4072 184.38 163.311 181.69 199.43M163.413 143.695L177.696 229.318C184.883 219.619 202.544 193.614 225.051 191.052" stroke="white" stroke-width="15" stroke-linecap="round" stroke-linejoin="bevel"/>
<defs>
<filter id="filter0_d_300_14" x="140.602" y="465.477" width="174.938" height="632.992" filterUnits="userSpaceOnUse" color-interpolation-filters="sRGB">
<feFlood flood-opacity="0" result="BackgroundImageFix"/>
<feColorMatrix in="SourceAlpha" type="matrix" values="0 0 0 0 0 0 0 0 0 0 0 0 0 0 0 0 0 0 127 0" result="hardAlpha"/>
<feOffset dx="4" dy="4"/>
<feComposite in2="hardAlpha" operator="out"/>
<feColorMatrix type="matrix" values="0 0 0 0 1 0 0 0 0 0.552941 0 0 0 0 0.713726 0 0 0 1 0"/>
<feBlend mode="normal" in2="BackgroundImageFix" result="effect1_dropShadow_300_14"/>
<feBlend mode="normal" in="SourceGraphic" in2="effect1_dropShadow_300_14" result="shape"/>
</filter>
</defs>
</svg>
